<svg xmlns="http://www.w3.org/2000/svg" width="468.82" height="416.23" viewBox="0 0 468.82 416.23">
  <defs>
    <style>
      .cls-1 {
        fill: #42acb2;
      }

      .cls-2, .cls-4 {
        fill: #fff;
      }

      .cls-3 {
        isolation: isolate;
      }

      .cls-4 {
        font-size: 228.32px;
        font-family: KhmerOSsys, Khmer OS System;
      }
    </style>
  </defs>
  <g id="Layer_2" data-name="Layer 2">
    <g id="Capa_1" data-name="Capa 1">
      <g>
        <path class="cls-1" d="M286.72,199H268l-3.18-17.71a2.38,2.38,0,0,0-2.35-2h0l-22.41,0-1-5.62a2.38,2.38,0,0,0-2.16-2H201.27l-4-38.75a2.38,2.38,0,0,0-2.41-2.14h0l-18.78,0-2.51-51.25a2.38,2.38,0,0,0-2.37-2.27H133.58l-2.39,2.24-2.47,40.65h-9.08l-2.54,2-6.6,35.91H77.89l-.73-4.57a2.4,2.4,0,0,0-2.34-2H37.22l-2.37,2L30.78,176.8h-7l-2.06,2.1-3.6,31.68H2.39L0,213l2.39,2.39h11.4l3,9L19.29,226h27l5.18,32.32,2.44,2h37.6a2.39,2.39,0,0,0,2.29-2.19l2.84-33.24.74,5.12,2.32,2H120l.59,21.9,2.35,2.32,16.89,0,2.46,50.24,2.36,2.27h37.62a2.4,2.4,0,0,0,2.39-2.22l4.62-63.39H206a2.44,2.44,0,0,0,2.4-2.08l2.27-17.62,34.22,0h0a2.38,2.38,0,0,0,2.35-2l.09-.56,8.81,0h0a2.4,2.4,0,0,0,2.19-2L261,203.76h25.72a2.39,2.39,0,0,0,0-4.78Z"/>
        <path class="cls-2" d="M249.13,199H230.44l-3.18-17.71a2.4,2.4,0,0,0-2.35-2h0a2.4,2.4,0,0,0-2.35,2l-4.86,27.31-4.13-13a2.37,2.37,0,0,0-2.45-1.66,2.4,2.4,0,0,0-2.19,2l-1.73,10.65-5.66-32.88a2.39,2.39,0,0,0-2.17-2,2.37,2.37,0,0,0-2.45,1.61l-4.51,13.22-1.47-8.81a2.39,2.39,0,0,0-4.69-.1l-5,23.5-2.45-23.25a2.37,2.37,0,0,0-2.34-2.14,2.41,2.41,0,0,0-2.4,2.08L168.66,220l-9-87a2.39,2.39,0,0,0-4.76.08L145.15,267,136,79.65a2.39,2.39,0,0,0-2.38-2.27h0a2.4,2.4,0,0,0-2.39,2.24l-7.28,119.72-2.07-76.75a2.39,2.39,0,0,0-4.74-.37l-17,92.65-4.48-31a2.4,2.4,0,0,0-2.31-2.05,2.37,2.37,0,0,0-2.4,1.94l-4.81,24.73L75.87,160a2.34,2.34,0,0,0-2.37-1.89,2.39,2.39,0,0,0-2.32,2L65.68,191l-2.4-16.24a2.39,2.39,0,0,0-4.74.15l-5.41,63.33-13.56-84.7a2.39,2.39,0,0,0-4.72,0l-5.61,32.09-2.94-7.33a2.39,2.39,0,0,0-4.59.62l-3.82,33.65-.11-.33a2.4,2.4,0,0,0-2.27-1.64H2.39a2.39,2.39,0,0,0,0,4.78h11.4l3,9a2.39,2.39,0,0,0,4.64-.48l4-35,2.53,6.33a2.39,2.39,0,0,0,4.57-.47L37.1,168.4l14.4,89.86a2.39,2.39,0,0,0,4.74-.18l5.31-62.28,1.55,10.46a2.38,2.38,0,0,0,2.33,2h0a2.38,2.38,0,0,0,2.35-2l5.92-33.28,10.08,48a2.39,2.39,0,0,0,2.34,1.9h0A2.39,2.39,0,0,0,88.49,221l4.38-22.48L97.41,230a2.38,2.38,0,0,0,2.32,2,2.35,2.35,0,0,0,2.39-1.95l15.56-84.55,2.91,108.4a2.39,2.39,0,0,0,4.78.08l7.95-130.66,9,183.11a2.39,2.39,0,0,0,2.36,2.27h0a2.39,2.39,0,0,0,2.38-2.22l10.64-146L166,241a2.37,2.37,0,0,0,2.34,2.14,2.42,2.42,0,0,0,2.4-2.08l5.47-42.33,1.9,18.05a2.39,2.39,0,0,0,4.71.25l5.46-25.95.95,5.66a2.39,2.39,0,0,0,4.62.38l4.54-13.32,6.48,37.68a2.34,2.34,0,0,0,2.37,2,2.39,2.39,0,0,0,2.35-2L212,206.56l4,12.69a2.39,2.39,0,0,0,4.63-.31l4.21-23.67,1.18,6.52a2.38,2.38,0,0,0,2.35,2h20.69a2.39,2.39,0,0,0,0-4.78Z"/>
      </g>
      <g>
        <g class="cls-3">
          <path class="cls-1" d="M342.08,148.34h29.46q-5.7,6.34-9.59,6.35H332.49Q336.39,154.69,342.08,148.34Z"/>
          <polygon class="cls-1" points="328.7 138.75 358.16 138.75 371.54 148.34 342.08 148.34 328.7 138.75"/>
          <polygon class="cls-1" points="343.64 130.94 373.1 130.94 358.16 138.75 328.7 138.75 343.64 130.94"/>
          <polygon class="cls-1" points="350.44 115 379.9 115 384.35 115 354.89 115 350.44 115"/>
          <polygon class="cls-1" points="354.89 115 384.35 115 408.2 130.05 378.74 130.05 354.89 115"/>
          <polygon class="cls-1" points="392.33 132.84 421.79 132.84 404.19 148.45 374.73 148.45 392.33 132.84"/>
          <polygon class="cls-1" points="395.9 115 425.36 115 429.82 115 400.36 115 395.9 115"/>
          <polygon class="cls-1" points="400.36 115 429.82 115 451.99 128.6 422.53 128.6 400.36 115"/>
          <path class="cls-1" d="M422.53,128.6H452a19.69,19.69,0,0,0,10.47,3H433A19.69,19.69,0,0,1,422.53,128.6Z"/>
          <path class="cls-1" d="M439.36,131.62h29.46q-6.35,16.83-14,16.83H425.32Q433,148.45,439.36,131.62Z"/>
          <polygon class="cls-1" points="433 131.62 462.46 131.62 468.82 131.62 439.36 131.62 433 131.62"/>
          <path class="cls-1" d="M433,131.62h6.36q-6.35,16.83-14,16.83a29.45,29.45,0,0,1-15.38-4.57l-17.61-11-17.6,15.61h-3.57l-27.52-17.51-14.94,7.81,13.38,9.59q-5.7,6.34-9.59,6.35a12.26,12.26,0,0,1-7.69-2.89l-13.48-10.6V135l39.12-20h4.45l23.85,15.05L395.9,115h4.46l22.17,13.6A19.69,19.69,0,0,0,433,131.62Z"/>
        </g>
        <g class="cls-3">
          <rect class="cls-1" x="341.96" y="187.47" width="29.46" height="83.61"/>
          <path class="cls-1" d="M367,170.74h29.45q-12.48,0-18.82,4.24t-6.25,12.49H342q0-8.37,6.25-12.49T367,170.74Z"/>
          <polygon class="cls-1" points="367.04 159.6 396.49 159.6 413.21 159.6 383.75 159.6 367.04 159.6"/>
          <path class="cls-1" d="M383.75,159.6h29.46q22.29,0,33.43,6.91H417.18Q406,159.6,383.75,159.6Z"/>
          <rect class="cls-1" x="428.33" y="187.47" width="29.46" height="83.61"/>
          <path class="cls-1" d="M417.18,166.51q11.15,7,11.15,21v83.61H408.82V187.47q0-8.37-6.23-12.49t-18.84-4.24H367q-12.5,0-18.83,4.24T342,187.47v83.61h-19.5V187.47q0-14,11.15-21T367,159.6h16.71Q406,159.6,417.18,166.51Z"/>
          <path class="cls-1" d="M417.18,166.51h29.46q11.14,7,11.14,21H428.33Q428.33,173.52,417.18,166.51Z"/>
        </g>
      </g>
      <text class="cls-4" transform="translate(287.99 271.08)">ក</text>
      <path class="cls-2" d="M188.38,82.55C208,58.64,233.79,36.41,262.22,24.08c20.87-9,42.94-10.09,63.42.61,17.65,9.22,30.8,25,39.47,42.65a131.61,131.61,0,0,1,8.58,22.2c.68,2.38,1.3,4.78,1.84,7.2.15.68.26,1.37.42,2,.38,1.56-.39-2.2-.19-1,.36,2.12,1.36,7.34,4.6,5.93,2.93-1.27,3-8.07,2.61-10.45C377.92,63.3,362.08,32,337.11,14.13,317.87.37,294.85-3.54,272.27,3.28c-21.73,6.57-41,19.91-57.95,34.66a250.71,250.71,0,0,0-29.71,29.93c-2.37,2.89-2.29,8.23-1.34,11.63.63,2.3,2.68,6,5.11,3Z"/>
    </g>
  </g>
</svg>
